<svg xmlns="http://www.w3.org/2000/svg" viewBox="0 0 780 500">
  <rect width="780" height="500" rx="40" fill="none"/>
  <path d="M293.2 348.7l33.4-195.8h53.4l-33.4 195.8h-53.4z" fill="#1A1F71"/>
  <path d="M530.9 156.5c-10.6-4-27.2-8.3-47.9-8.3-52.8 0-90 26.6-90.2 64.7-.3 28.2 26.6 43.9 46.9 53.3 20.8 9.6 27.8 15.7 27.7 24.3-.1 13.1-16.6 19.1-32 19.1-21.4 0-32.7-3-50.3-10.2l-6.9-3.1-7.5 43.8c12.5 5.5 35.6 10.2 59.6 10.5 56.2 0 92.6-26.3 93-67 .2-22.3-14-39.3-44.8-53.3-18.6-9.1-30.1-15.1-30-24.3 0-8.1 9.7-16.8 30.6-16.8 17.5-.3 30.1 3.5 40 7.5l4.8 2.3 7.2-42.5z" fill="#1A1F71"/>
  <path d="M611.5 152.9h-41.3c-12.8 0-22.4 3.5-28 16.3l-79.3 179.5h56.1s9.2-24.1 11.2-29.4c6.1 0 60.7.1 68.5.1 1.6 6.9 6.5 29.3 6.5 29.3h49.6l-43.3-195.8zm-65.9 126.3c4.4-11.3 21.3-54.7 21.3-54.7-.3.5 4.4-11.3 7.1-18.7l3.6 16.9s10.2 46.8 12.4 56.5h-44.4z" fill="#1A1F71"/>
  <path d="M247.8 152.9l-52.3 133.5-5.6-27.1c-9.7-31.2-39.9-65.1-73.7-82l47.8 171.3 56.6-.1 84.2-195.7h-57z" fill="#1A1F71"/>
  <path d="M146.9 152.9H59.6l-.7 3.5c67.1 16.2 111.5 55.4 129.9 102.5l-18.7-90.2c-3.2-12.4-12.8-15.4-23.2-15.8z" fill="#F7B600"/>
</svg>
